<?xml version="1.0" encoding="UTF-8" standalone="no"?>
<!DOCTYPE svg PUBLIC "-//W3C//DTD SVG 1.1//EN"
 "http://www.w3.org/Graphics/SVG/1.1/DTD/svg11.dtd">
<!-- Generated by graphviz version 12.2.1 (20241206.2353)
 -->
<!-- Title: G Pages: 1 -->
<svg width="1027pt" height="1731pt"
 viewBox="0.00 0.00 1027.45 1730.95" xmlns="http://www.w3.org/2000/svg" xmlns:xlink="http://www.w3.org/1999/xlink">
<g id="graph0" class="graph" transform="scale(1 1) rotate(0) translate(21.6 1709.35)">
<title>G</title>
<polygon fill="#111111" stroke="none" points="-21.6,21.6 -21.6,-1709.35 1005.85,-1709.35 1005.85,21.6 -21.6,21.6"/>
<!-- app/api/auth/[...all]/route.ts -->
<g id="node1" class="node">
<title>app/api/auth/[...all]/route.ts</title>
<path fill="none" stroke="#c6c5fe" d="M175.33,-23.75C175.33,-23.75 16.17,-23.75 16.17,-23.75 12.21,-23.75 8.25,-19.79 8.25,-15.83 8.25,-15.83 8.25,-7.92 8.25,-7.92 8.25,-3.96 12.21,0 16.17,0 16.17,0 175.33,0 175.33,0 179.29,0 183.25,-3.96 183.25,-7.92 183.25,-7.92 183.25,-15.83 183.25,-15.83 183.25,-19.79 179.29,-23.75 175.33,-23.75"/>
<text text-anchor="middle" x="95.75" y="-6.45" font-family="Arial" font-size="14.00" fill="#c6c5fe">app/api/auth/[...all]/route.ts</text>
</g>
<!-- lib/auth.ts -->
<g id="node2" class="node">
<title>lib/auth.ts</title>
<path fill="none" stroke="#c6c5fe" d="M388.96,-23.75C388.96,-23.75 331.04,-23.75 331.04,-23.75 327.08,-23.75 323.12,-19.79 323.12,-15.83 323.12,-15.83 323.12,-7.92 323.12,-7.92 323.12,-3.96 327.08,0 331.04,0 331.04,0 388.96,0 388.96,0 392.92,0 396.88,-3.96 396.88,-7.92 396.88,-7.92 396.88,-15.83 396.88,-15.83 396.88,-19.79 392.92,-23.75 388.96,-23.75"/>
<text text-anchor="middle" x="360" y="-6.45" font-family="Arial" font-size="14.00" fill="#c6c5fe">lib/auth.ts</text>
</g>
<!-- app/api/auth/[...all]/route.ts&#45;&gt;lib/auth.ts -->
<g id="edge1" class="edge">
<title>app/api/auth/[...all]/route.ts&#45;&gt;lib/auth.ts</title>
<path fill="none" stroke="#757575" d="M183.71,-11.88C226.18,-11.88 275.64,-11.88 311.17,-11.88"/>
<polygon fill="#757575" stroke="#757575" points="311.14,-15.38 321.14,-11.88 311.14,-8.38 311.14,-15.38"/>
</g>
<!-- env.mjs -->
<g id="node47" class="node">
<title>env.mjs</title>
<path fill="none" stroke="#cfffac" d="M643.46,-65.75C643.46,-65.75 596.79,-65.75 596.79,-65.75 592.83,-65.75 588.88,-61.79 588.88,-57.83 588.88,-57.83 588.88,-49.92 588.88,-49.92 588.88,-45.96 592.83,-42 596.79,-42 596.79,-42 643.46,-42 643.46,-42 647.42,-42 651.38,-45.96 651.38,-49.92 651.38,-49.92 651.38,-57.83 651.38,-57.83 651.38,-61.79 647.42,-65.75 643.46,-65.75"/>
<text text-anchor="middle" x="620.12" y="-48.45" font-family="Arial" font-size="14.00" fill="#cfffac">env.mjs</text>
</g>
<!-- lib/auth.ts&#45;&gt;env.mjs -->
<g id="edge56" class="edge">
<title>lib/auth.ts&#45;&gt;env.mjs</title>
<path fill="none" stroke="#757575" d="M397.29,-17.61C423.7,-21.8 460.33,-27.64 492.5,-32.88 520.79,-37.48 552.62,-42.76 577.29,-46.87"/>
<polygon fill="#757575" stroke="#757575" points="576.5,-50.29 586.94,-48.48 577.65,-43.38 576.5,-50.29"/>
</g>
<!-- generated/prisma/index.d.ts -->
<g id="node48" class="node">
<title>generated/prisma/index.d.ts</title>
<path fill="none" stroke="#c6c5fe" d="M703.83,-23.75C703.83,-23.75 536.42,-23.75 536.42,-23.75 532.46,-23.75 528.5,-19.79 528.5,-15.83 528.5,-15.83 528.5,-7.92 528.5,-7.92 528.5,-3.96 532.46,0 536.42,0 536.42,0 703.83,0 703.83,0 707.79,0 711.75,-3.96 711.75,-7.92 711.75,-7.92 711.75,-15.83 711.75,-15.83 711.75,-19.79 707.79,-23.75 703.83,-23.75"/>
<text text-anchor="middle" x="620.12" y="-6.45" font-family="Arial" font-size="14.00" fill="#c6c5fe">generated/prisma/index.d.ts</text>
</g>
<!-- lib/auth.ts&#45;&gt;generated/prisma/index.d.ts -->
<g id="edge57" class="edge">
<title>lib/auth.ts&#45;&gt;generated/prisma/index.d.ts</title>
<path fill="none" stroke="#757575" d="M397.16,-11.88C428.17,-11.88 474.41,-11.88 516.67,-11.88"/>
<polygon fill="#757575" stroke="#757575" points="516.66,-15.38 526.66,-11.88 516.66,-8.38 516.66,-15.38"/>
</g>
<!-- app/api/health/route.ts -->
<g id="node3" class="node">
<title>app/api/health/route.ts</title>
<path fill="none" stroke="#cfffac" d="M162.58,-86.75C162.58,-86.75 28.92,-86.75 28.92,-86.75 24.96,-86.75 21,-82.79 21,-78.83 21,-78.83 21,-70.92 21,-70.92 21,-66.96 24.96,-63 28.92,-63 28.92,-63 162.58,-63 162.58,-63 166.54,-63 170.5,-66.96 170.5,-70.92 170.5,-70.92 170.5,-78.83 170.5,-78.83 170.5,-82.79 166.54,-86.75 162.58,-86.75"/>
<text text-anchor="middle" x="95.75" y="-69.45" font-family="Arial" font-size="14.00" fill="#cfffac">app/api/health/route.ts</text>
</g>
<!-- app/layout.tsx -->
<g id="node4" class="node">
<title>app/layout.tsx</title>
<path fill="none" stroke="#c6c5fe" d="M137.46,-128.75C137.46,-128.75 54.04,-128.75 54.04,-128.75 50.08,-128.75 46.12,-124.79 46.12,-120.83 46.12,-120.83 46.12,-112.92 46.12,-112.92 46.12,-108.96 50.08,-105 54.04,-105 54.04,-105 137.46,-105 137.46,-105 141.42,-105 145.38,-108.96 145.38,-112.92 145.38,-112.92 145.38,-120.83 145.38,-120.83 145.38,-124.79 141.42,-128.75 137.46,-128.75"/>
<text text-anchor="middle" x="95.75" y="-111.45" font-family="Arial" font-size="14.00" fill="#c6c5fe">app/layout.tsx</text>
</g>
<!-- components/providers/theme&#45;provider.tsx -->
<g id="node5" class="node">
<title>components/providers/theme&#45;provider.tsx</title>
<path fill="none" stroke="#cfffac" d="M484.58,-149.75C484.58,-149.75 235.42,-149.75 235.42,-149.75 231.46,-149.75 227.5,-145.79 227.5,-141.83 227.5,-141.83 227.5,-133.92 227.5,-133.92 227.5,-129.96 231.46,-126 235.42,-126 235.42,-126 484.58,-126 484.58,-126 488.54,-126 492.5,-129.96 492.5,-133.92 492.5,-133.92 492.5,-141.83 492.5,-141.83 492.5,-145.79 488.54,-149.75 484.58,-149.75"/>
<text text-anchor="middle" x="360" y="-132.45" font-family="Arial" font-size="14.00" fill="#cfffac">components/providers/theme&#45;provider.tsx</text>
</g>
<!-- app/layout.tsx&#45;&gt;components/providers/theme&#45;provider.tsx -->
<g id="edge2" class="edge">
<title>app/layout.tsx&#45;&gt;components/providers/theme&#45;provider.tsx</title>
<path fill="none" stroke="#757575" d="M145.77,-120.8C166.04,-122.42 190.7,-124.4 215.95,-126.42"/>
<polygon fill="#757575" stroke="#757575" points="215.44,-129.89 225.68,-127.2 215.99,-122.91 215.44,-129.89"/>
</g>
<!-- styles/tailwind.css -->
<g id="node6" class="node">
<title>styles/tailwind.css</title>
<path fill="none" stroke="#cfffac" d="M413.71,-107.75C413.71,-107.75 306.29,-107.75 306.29,-107.75 302.33,-107.75 298.38,-103.79 298.38,-99.83 298.38,-99.83 298.38,-91.92 298.38,-91.92 298.38,-87.96 302.33,-84 306.29,-84 306.29,-84 413.71,-84 413.71,-84 417.67,-84 421.62,-87.96 421.62,-91.92 421.62,-91.92 421.62,-99.83 421.62,-99.83 421.62,-103.79 417.67,-107.75 413.71,-107.75"/>
<text text-anchor="middle" x="360" y="-90.45" font-family="Arial" font-size="14.00" fill="#cfffac">styles/tailwind.css</text>
</g>
<!-- app/layout.tsx&#45;&gt;styles/tailwind.css -->
<g id="edge3" class="edge">
<title>app/layout.tsx&#45;&gt;styles/tailwind.css</title>
<path fill="none" stroke="#757575" d="M145.77,-112.95C185.46,-109.77 241.93,-105.25 286.79,-101.66"/>
<polygon fill="#757575" stroke="#757575" points="287.03,-105.15 296.72,-100.86 286.47,-98.17 287.03,-105.15"/>
</g>
<!-- app/page.tsx -->
<g id="node7" class="node">
<title>app/page.tsx</title>
<path fill="none" stroke="#c6c5fe" d="M134.46,-1435.75C134.46,-1435.75 57.04,-1435.75 57.04,-1435.75 53.08,-1435.75 49.12,-1431.79 49.12,-1427.83 49.12,-1427.83 49.12,-1419.92 49.12,-1419.92 49.12,-1415.96 53.08,-1412 57.04,-1412 57.04,-1412 134.46,-1412 134.46,-1412 138.42,-1412 142.38,-1415.96 142.38,-1419.92 142.38,-1419.92 142.38,-1427.83 142.38,-1427.83 142.38,-1431.79 138.42,-1435.75 134.46,-1435.75"/>
<text text-anchor="middle" x="95.75" y="-1418.45" font-family="Arial" font-size="14.00" fill="#c6c5fe">app/page.tsx</text>
</g>
<!-- components/ui/badge.tsx -->
<g id="node8" class="node">
<title>components/ui/badge.tsx</title>
<path fill="none" stroke="#c6c5fe" d="M435.46,-1519.75C435.46,-1519.75 284.54,-1519.75 284.54,-1519.75 280.58,-1519.75 276.62,-1515.79 276.62,-1511.83 276.62,-1511.83 276.62,-1503.92 276.62,-1503.92 276.62,-1499.96 280.58,-1496 284.54,-1496 284.54,-1496 435.46,-1496 435.46,-1496 439.42,-1496 443.38,-1499.96 443.38,-1503.92 443.38,-1503.92 443.38,-1511.83 443.38,-1511.83 443.38,-1515.79 439.42,-1519.75 435.46,-1519.75"/>
<text text-anchor="middle" x="360" y="-1502.45" font-family="Arial" font-size="14.00" fill="#c6c5fe">components/ui/badge.tsx</text>
</g>
<!-- app/page.tsx&#45;&gt;components/ui/badge.tsx -->
<g id="edge4" class="edge">
<title>app/page.tsx&#45;&gt;components/ui/badge.tsx</title>
<path fill="none" stroke="#757575" d="M142.84,-1428.02C159.08,-1431.01 176.91,-1436.12 191.5,-1444.88 212.59,-1457.52 206.05,-1474.87 227.5,-1486.88 239.08,-1493.36 252.09,-1497.99 265.29,-1501.27"/>
<polygon fill="#757575" stroke="#757575" points="264.4,-1504.66 274.92,-1503.4 265.91,-1497.83 264.4,-1504.66"/>
</g>
<!-- components/ui/button.tsx -->
<g id="node9" class="node">
<title>components/ui/button.tsx</title>
<path fill="none" stroke="#c6c5fe" d="M435.46,-1271.75C435.46,-1271.75 284.54,-1271.75 284.54,-1271.75 280.58,-1271.75 276.62,-1267.79 276.62,-1263.83 276.62,-1263.83 276.62,-1255.92 276.62,-1255.92 276.62,-1251.96 280.58,-1248 284.54,-1248 284.54,-1248 435.46,-1248 435.46,-1248 439.42,-1248 443.38,-1251.96 443.38,-1255.92 443.38,-1255.92 443.38,-1263.83 443.38,-1263.83 443.38,-1267.79 439.42,-1271.75 435.46,-1271.75"/>
<text text-anchor="middle" x="360" y="-1254.45" font-family="Arial" font-size="14.00" fill="#c6c5fe">components/ui/button.tsx</text>
</g>
<!-- app/page.tsx&#45;&gt;components/ui/button.tsx -->
<g id="edge5" class="edge">
<title>app/page.tsx&#45;&gt;components/ui/button.tsx</title>
<path fill="none" stroke="#757575" d="M109.64,-1411.63C132.18,-1390.68 180.82,-1347.44 227.5,-1318.88 255.26,-1301.89 288.76,-1286.93 315,-1276.32"/>
<polygon fill="#757575" stroke="#757575" points="315.99,-1279.7 323.99,-1272.75 313.41,-1273.19 315.99,-1279.7"/>
</g>
<!-- components/ui/card.tsx -->
<g id="node10" class="node">
<title>components/ui/card.tsx</title>
<path fill="none" stroke="#c6c5fe" d="M429.83,-1477.75C429.83,-1477.75 290.17,-1477.75 290.17,-1477.75 286.21,-1477.75 282.25,-1473.79 282.25,-1469.83 282.25,-1469.83 282.25,-1461.92 282.25,-1461.92 282.25,-1457.96 286.21,-1454 290.17,-1454 290.17,-1454 429.83,-1454 429.83,-1454 433.79,-1454 437.75,-1457.96 437.75,-1461.92 437.75,-1461.92 437.75,-1469.83 437.75,-1469.83 437.75,-1473.79 433.79,-1477.75 429.83,-1477.75"/>
<text text-anchor="middle" x="360" y="-1460.45" font-family="Arial" font-size="14.00" fill="#c6c5fe">components/ui/card.tsx</text>
</g>
<!-- app/page.tsx&#45;&gt;components/ui/card.tsx -->
<g id="edge6" class="edge">
<title>app/page.tsx&#45;&gt;components/ui/card.tsx</title>
<path fill="none" stroke="#757575" d="M142.74,-1431.27C167.79,-1435.3 199.35,-1440.37 227.5,-1444.88 241.51,-1447.12 256.35,-1449.49 270.83,-1451.81"/>
<polygon fill="#757575" stroke="#757575" points="269.89,-1455.2 280.32,-1453.32 271,-1448.29 269.89,-1455.2"/>
</g>
<!-- components/ui/separator.tsx -->
<g id="node11" class="node">
<title>components/ui/separator.tsx</title>
<path fill="none" stroke="#c6c5fe" d="M444.83,-1191.75C444.83,-1191.75 275.17,-1191.75 275.17,-1191.75 271.21,-1191.75 267.25,-1187.79 267.25,-1183.83 267.25,-1183.83 267.25,-1175.92 267.25,-1175.92 267.25,-1171.96 271.21,-1168 275.17,-1168 275.17,-1168 444.83,-1168 444.83,-1168 448.79,-1168 452.75,-1171.96 452.75,-1175.92 452.75,-1175.92 452.75,-1183.83 452.75,-1183.83 452.75,-1187.79 448.79,-1191.75 444.83,-1191.75"/>
<text text-anchor="middle" x="360" y="-1174.45" font-family="Arial" font-size="14.00" fill="#c6c5fe">components/ui/separator.tsx</text>
</g>
<!-- app/page.tsx&#45;&gt;components/ui/separator.tsx -->
<g id="edge7" class="edge">
<title>app/page.tsx&#45;&gt;components/ui/separator.tsx</title>
<path fill="none" stroke="#757575" d="M107.03,-1411.84C125.1,-1390.42 163.31,-1344 191.5,-1301.88 209.44,-1275.07 203.61,-1260.54 227.5,-1238.88 249.07,-1219.31 278.2,-1205.34 303.57,-1195.92"/>
<polygon fill="#757575" stroke="#757575" points="304.49,-1199.31 312.75,-1192.67 302.15,-1192.71 304.49,-1199.31"/>
</g>
<!-- constants/features.ts -->
<g id="node12" class="node">
<title>constants/features.ts</title>
<path fill="none" stroke="#cfffac" d="M422.33,-1435.75C422.33,-1435.75 297.67,-1435.75 297.67,-1435.75 293.71,-1435.75 289.75,-1431.79 289.75,-1427.83 289.75,-1427.83 289.75,-1419.92 289.75,-1419.92 289.75,-1415.96 293.71,-1412 297.67,-1412 297.67,-1412 422.33,-1412 422.33,-1412 426.29,-1412 430.25,-1415.96 430.25,-1419.92 430.25,-1419.92 430.25,-1427.83 430.25,-1427.83 430.25,-1431.79 426.29,-1435.75 422.33,-1435.75"/>
<text text-anchor="middle" x="360" y="-1418.45" font-family="Arial" font-size="14.00" fill="#cfffac">constants/features.ts</text>
</g>
<!-- app/page.tsx&#45;&gt;constants/features.ts -->
<g id="edge8" class="edge">
<title>app/page.tsx&#45;&gt;constants/features.ts</title>
<path fill="none" stroke="#757575" d="M142.73,-1423.88C180.03,-1423.88 233.52,-1423.88 277.97,-1423.88"/>
<polygon fill="#757575" stroke="#757575" points="277.84,-1427.38 287.84,-1423.88 277.84,-1420.38 277.84,-1427.38"/>
</g>
<!-- lib/cn.ts -->
<g id="node14" class="node">
<title>lib/cn.ts</title>
<path fill="none" stroke="#cfffac" d="M643.08,-901.75C643.08,-901.75 597.17,-901.75 597.17,-901.75 593.21,-901.75 589.25,-897.79 589.25,-893.83 589.25,-893.83 589.25,-885.92 589.25,-885.92 589.25,-881.96 593.21,-878 597.17,-878 597.17,-878 643.08,-878 643.08,-878 647.04,-878 651,-881.96 651,-885.92 651,-885.92 651,-893.83 651,-893.83 651,-897.79 647.04,-901.75 643.08,-901.75"/>
<text text-anchor="middle" x="620.12" y="-884.45" font-family="Arial" font-size="14.00" fill="#cfffac">lib/cn.ts</text>
</g>
<!-- components/ui/badge.tsx&#45;&gt;lib/cn.ts -->
<g id="edge12" class="edge">
<title>components/ui/badge.tsx&#45;&gt;lib/cn.ts</title>
<path fill="none" stroke="#757575" d="M443.68,-1509.69C461.67,-1506.28 479.26,-1499.46 492.5,-1486.88 578.02,-1405.58 610.58,-1013.81 617.6,-913.38"/>
<polygon fill="#757575" stroke="#757575" points="621.09,-913.62 618.27,-903.41 614.11,-913.15 621.09,-913.62"/>
</g>
<!-- components/ui/button.tsx&#45;&gt;lib/cn.ts -->
<g id="edge14" class="edge">
<title>components/ui/button.tsx&#45;&gt;lib/cn.ts</title>
<path fill="none" stroke="#757575" d="M443.64,-1256.66C461.32,-1252.59 478.78,-1245.59 492.5,-1233.88 592.8,-1148.25 613.69,-975.84 618.01,-913.26"/>
<polygon fill="#757575" stroke="#757575" points="621.49,-913.65 618.6,-903.46 614.5,-913.23 621.49,-913.65"/>
</g>
<!-- components/ui/card.tsx&#45;&gt;lib/cn.ts -->
<g id="edge17" class="edge">
<title>components/ui/card.tsx&#45;&gt;lib/cn.ts</title>
<path fill="none" stroke="#757575" d="M438.06,-1468.47C457.93,-1465.45 477.82,-1458.62 492.5,-1444.88 572.42,-1370.06 608.85,-1009.05 617.21,-913.25"/>
<polygon fill="#757575" stroke="#757575" points="620.67,-913.77 618.03,-903.51 613.7,-913.18 620.67,-913.77"/>
</g>
<!-- components/ui/separator.tsx&#45;&gt;lib/cn.ts -->
<g id="edge37" class="edge">
<title>components/ui/separator.tsx&#45;&gt;lib/cn.ts</title>
<path fill="none" stroke="#757575" d="M453.02,-1176.9C467.2,-1173.25 480.95,-1167.56 492.5,-1158.88 575.39,-1096.57 606.16,-966.39 615.57,-913.24"/>
<polygon fill="#757575" stroke="#757575" points="619,-913.95 617.19,-903.51 612.1,-912.8 619,-913.95"/>
</g>
<!-- components/ui/accordion.tsx -->
<g id="node13" class="node">
<title>components/ui/accordion.tsx</title>
<path fill="none" stroke="#c6c5fe" d="M445.96,-901.75C445.96,-901.75 274.04,-901.75 274.04,-901.75 270.08,-901.75 266.12,-897.79 266.12,-893.83 266.12,-893.83 266.12,-885.92 266.12,-885.92 266.12,-881.96 270.08,-878 274.04,-878 274.04,-878 445.96,-878 445.96,-878 449.92,-878 453.88,-881.96 453.88,-885.92 453.88,-885.92 453.88,-893.83 453.88,-893.83 453.88,-897.79 449.92,-901.75 445.96,-901.75"/>
<text text-anchor="middle" x="360" y="-884.45" font-family="Arial" font-size="14.00" fill="#c6c5fe">components/ui/accordion.tsx</text>
</g>
<!-- components/ui/accordion.tsx&#45;&gt;lib/cn.ts -->
<g id="edge9" class="edge">
<title>components/ui/accordion.tsx&#45;&gt;lib/cn.ts</title>
<path fill="none" stroke="#757575" d="M454.19,-889.88C496.56,-889.88 544.53,-889.88 577.77,-889.88"/>
<polygon fill="#757575" stroke="#757575" points="577.37,-893.38 587.37,-889.88 577.37,-886.38 577.37,-893.38"/>
</g>
<!-- components/ui/alert.tsx -->
<g id="node15" class="node">
<title>components/ui/alert.tsx</title>
<path fill="none" stroke="#c6c5fe" d="M429.83,-859.75C429.83,-859.75 290.17,-859.75 290.17,-859.75 286.21,-859.75 282.25,-855.79 282.25,-851.83 282.25,-851.83 282.25,-843.92 282.25,-843.92 282.25,-839.96 286.21,-836 290.17,-836 290.17,-836 429.83,-836 429.83,-836 433.79,-836 437.75,-839.96 437.75,-843.92 437.75,-843.92 437.75,-851.83 437.75,-851.83 437.75,-855.79 433.79,-859.75 429.83,-859.75"/>
<text text-anchor="middle" x="360" y="-842.45" font-family="Arial" font-size="14.00" fill="#c6c5fe">components/ui/alert.tsx</text>
</g>
<!-- components/ui/alert.tsx&#45;&gt;lib/cn.ts -->
<g id="edge10" class="edge">
<title>components/ui/alert.tsx&#45;&gt;lib/cn.ts</title>
<path fill="none" stroke="#757575" d="M438.2,-860.12C456.03,-862.98 474.93,-866.02 492.5,-868.88 520.98,-873.51 553.05,-878.83 577.79,-882.95"/>
<polygon fill="#757575" stroke="#757575" points="577.01,-886.37 587.45,-884.57 578.16,-879.47 577.01,-886.37"/>
</g>
<!-- components/ui/avatar.tsx -->
<g id="node16" class="node">
<title>components/ui/avatar.tsx</title>
<path fill="none" stroke="#c6c5fe" d="M435.08,-817.75C435.08,-817.75 284.92,-817.75 284.92,-817.75 280.96,-817.75 277,-813.79 277,-809.83 277,-809.83 277,-801.92 277,-801.92 277,-797.96 280.96,-794 284.92,-794 284.92,-794 435.08,-794 435.08,-794 439.04,-794 443,-797.96 443,-801.92 443,-801.92 443,-809.83 443,-809.83 443,-813.79 439.04,-817.75 435.08,-817.75"/>
<text text-anchor="middle" x="360" y="-800.45" font-family="Arial" font-size="14.00" fill="#c6c5fe">components/ui/avatar.tsx</text>
</g>
<!-- components/ui/avatar.tsx&#45;&gt;lib/cn.ts -->
<g id="edge11" class="edge">
<title>components/ui/avatar.tsx&#45;&gt;lib/cn.ts</title>
<path fill="none" stroke="#757575" d="M443.28,-815.08C459.79,-818.02 476.87,-821.87 492.5,-826.88 527.28,-838.02 564.4,-857.48 589.39,-871.83"/>
<polygon fill="#757575" stroke="#757575" points="587.61,-874.85 598.01,-876.87 591.14,-868.8 587.61,-874.85"/>
</g>
<!-- components/ui/breadcrumb.tsx -->
<g id="node17" class="node">
<title>components/ui/breadcrumb.tsx</title>
<path fill="none" stroke="#c6c5fe" d="M453.08,-775.75C453.08,-775.75 266.92,-775.75 266.92,-775.75 262.96,-775.75 259,-771.79 259,-767.83 259,-767.83 259,-759.92 259,-759.92 259,-755.96 262.96,-752 266.92,-752 266.92,-752 453.08,-752 453.08,-752 457.04,-752 461,-755.96 461,-759.92 461,-759.92 461,-767.83 461,-767.83 461,-771.79 457.04,-775.75 453.08,-775.75"/>
<text text-anchor="middle" x="360" y="-758.45" font-family="Arial" font-size="14.00" fill="#c6c5fe">components/ui/breadcrumb.tsx</text>
</g>
<!-- components/ui/breadcrumb.tsx&#45;&gt;lib/cn.ts -->
<g id="edge13" class="edge">
<title>components/ui/breadcrumb.tsx&#45;&gt;lib/cn.ts</title>
<path fill="none" stroke="#757575" d="M461.39,-774.14C472.13,-776.92 482.71,-780.44 492.5,-784.88 536.98,-805.03 578.54,-845.11 601.23,-869.5"/>
<polygon fill="#757575" stroke="#757575" points="598.37,-871.55 607.69,-876.59 603.54,-866.84 598.37,-871.55"/>
</g>
<!-- components/ui/calendar.tsx -->
<g id="node18" class="node">
<title>components/ui/calendar.tsx</title>
<path fill="none" stroke="#c6c5fe" d="M177.96,-1292.75C177.96,-1292.75 13.54,-1292.75 13.54,-1292.75 9.58,-1292.75 5.62,-1288.79 5.62,-1284.83 5.62,-1284.83 5.62,-1276.92 5.62,-1276.92 5.62,-1272.96 9.58,-1269 13.54,-1269 13.54,-1269 177.96,-1269 177.96,-1269 181.92,-1269 185.88,-1272.96 185.88,-1276.92 185.88,-1276.92 185.88,-1284.83 185.88,-1284.83 185.88,-1288.79 181.92,-1292.75 177.96,-1292.75"/>
<text text-anchor="middle" x="95.75" y="-1275.45" font-family="Arial" font-size="14.00" fill="#c6c5fe">components/ui/calendar.tsx</text>
</g>
<!-- components/ui/calendar.tsx&#45;&gt;components/ui/button.tsx -->
<g id="edge15" class="edge">
<title>components/ui/calendar.tsx&#45;&gt;components/ui/button.tsx</title>
<path fill="none" stroke="#757575" d="M186.27,-1273.71C211.73,-1271.67 239.53,-1269.44 265.24,-1267.38"/>
<polygon fill="#757575" stroke="#757575" points="265.3,-1270.89 274.99,-1266.6 264.74,-1263.91 265.3,-1270.89"/>
</g>
<!-- components/ui/calendar.tsx&#45;&gt;lib/cn.ts -->
<g id="edge16" class="edge">
<title>components/ui/calendar.tsx&#45;&gt;lib/cn.ts</title>
<path fill="none" stroke="#757575" d="M186.09,-1292.66C287.65,-1304.05 445.48,-1315.07 492.5,-1280.88 554.54,-1235.75 601.7,-990.57 615.2,-913.25"/>
<polygon fill="#757575" stroke="#757575" points="618.64,-913.9 616.88,-903.45 611.74,-912.71 618.64,-913.9"/>
</g>
<!-- components/ui/chart.tsx -->
<g id="node19" class="node">
<title>components/ui/chart.tsx</title>
<path fill="none" stroke="#c6c5fe" d="M431.71,-733.75C431.71,-733.75 288.29,-733.75 288.29,-733.75 284.33,-733.75 280.38,-729.79 280.38,-725.83 280.38,-725.83 280.38,-717.92 280.38,-717.92 280.38,-713.96 284.33,-710 288.29,-710 288.29,-710 431.71,-710 431.71,-710 435.67,-710 439.62,-713.96 439.62,-717.92 439.62,-717.92 439.62,-725.83 439.62,-725.83 439.62,-729.79 435.67,-733.75 431.71,-733.75"/>
<text text-anchor="middle" x="360" y="-716.45" font-family="Arial" font-size="14.00" fill="#c6c5fe">components/ui/chart.tsx</text>
</g>
<!-- components/ui/chart.tsx&#45;&gt;lib/cn.ts -->
<g id="edge18" class="edge">
<title>components/ui/chart.tsx&#45;&gt;lib/cn.ts</title>
<path fill="none" stroke="#757575" d="M439.79,-725.34C457.92,-728.57 476.55,-733.97 492.5,-742.88 546.38,-772.94 587.98,-835.24 607.29,-868.26"/>
<polygon fill="#757575" stroke="#757575" points="604.03,-869.59 612.02,-876.55 610.11,-866.13 604.03,-869.59"/>
</g>
<!-- components/ui/checkbox.tsx -->
<g id="node20" class="node">
<title>components/ui/checkbox.tsx</title>
<path fill="none" stroke="#c6c5fe" d="M445.21,-691.75C445.21,-691.75 274.79,-691.75 274.79,-691.75 270.83,-691.75 266.88,-687.79 266.88,-683.83 266.88,-683.83 266.88,-675.92 266.88,-675.92 266.88,-671.96 270.83,-668 274.79,-668 274.79,-668 445.21,-668 445.21,-668 449.17,-668 453.12,-671.96 453.12,-675.92 453.12,-675.92 453.12,-683.83 453.12,-683.83 453.12,-687.79 449.17,-691.75 445.21,-691.75"/>
<text text-anchor="middle" x="360" y="-674.45" font-family="Arial" font-size="14.00" fill="#c6c5fe">components/ui/checkbox.tsx</text>
</g>
<!-- components/ui/checkbox.tsx&#45;&gt;lib/cn.ts -->
<g id="edge19" class="edge">
<title>components/ui/checkbox.tsx&#45;&gt;lib/cn.ts</title>
<path fill="none" stroke="#757575" d="M453.33,-684.72C467.16,-688.18 480.72,-693.33 492.5,-700.88 555.78,-741.38 594.93,-826.04 610.87,-866.88"/>
<polygon fill="#757575" stroke="#757575" points="607.58,-868.06 614.38,-876.19 614.13,-865.59 607.58,-868.06"/>
</g>
<!-- components/ui/command.tsx -->
<g id="node21" class="node">
<title>components/ui/command.tsx</title>
<path fill="none" stroke="#c6c5fe" d="M182.83,-629.75C182.83,-629.75 8.67,-629.75 8.67,-629.75 4.71,-629.75 0.75,-625.79 0.75,-621.83 0.75,-621.83 0.75,-613.92 0.75,-613.92 0.75,-609.96 4.71,-606 8.67,-606 8.67,-606 182.83,-606 182.83,-606 186.79,-606 190.75,-609.96 190.75,-613.92 190.75,-613.92 190.75,-621.83 190.75,-621.83 190.75,-625.79 186.79,-629.75 182.83,-629.75"/>
<text text-anchor="middle" x="95.75" y="-612.45" font-family="Arial" font-size="14.00" fill="#c6c5fe">components/ui/command.tsx</text>
</g>
<!-- components/ui/command.tsx&#45;&gt;lib/cn.ts -->
<g id="edge21" class="edge">
<title>components/ui/command.tsx&#45;&gt;lib/cn.ts</title>
<path fill="none" stroke="#757575" d="M190.82,-606.26C291.84,-595.75 444.36,-586.14 492.5,-616.88 581.56,-673.74 608.93,-811.15 616.5,-866.34"/>
<polygon fill="#757575" stroke="#757575" points="613.02,-866.68 617.74,-876.17 619.96,-865.81 613.02,-866.68"/>
</g>
<!-- components/ui/dialog.tsx -->
<g id="node22" class="node">
<title>components/ui/dialog.tsx</title>
<path fill="none" stroke="#c6c5fe" d="M434.71,-649.75C434.71,-649.75 285.29,-649.75 285.29,-649.75 281.33,-649.75 277.38,-645.79 277.38,-641.83 277.38,-641.83 277.38,-633.92 277.38,-633.92 277.38,-629.96 281.33,-626 285.29,-626 285.29,-626 434.71,-626 434.71,-626 438.67,-626 442.62,-629.96 442.62,-633.92 442.62,-633.92 442.62,-641.83 442.62,-641.83 442.62,-645.79 438.67,-649.75 434.71,-649.75"/>
<text text-anchor="middle" x="360" y="-632.45" font-family="Arial" font-size="14.00" fill="#c6c5fe">components/ui/dialog.tsx</text>
</g>
<!-- components/ui/command.tsx&#45;&gt;components/ui/dialog.tsx -->
<g id="edge20" class="edge">
<title>components/ui/command.tsx&#45;&gt;components/ui/dialog.tsx</title>
<path fill="none" stroke="#757575" d="M191.06,-625.07C215.4,-626.92 241.58,-628.92 265.86,-630.77"/>
<polygon fill="#757575" stroke="#757575" points="265.49,-634.25 275.73,-631.52 266.02,-627.27 265.49,-634.25"/>
</g>
<!-- components/ui/dialog.tsx&#45;&gt;lib/cn.ts -->
<g id="edge23" class="edge">
<title>components/ui/dialog.tsx&#45;&gt;lib/cn.ts</title>
<path fill="none" stroke="#757575" d="M442.97,-639.34C460.48,-642.71 478.04,-648.69 492.5,-658.88 565.92,-710.62 601.22,-818.93 613.67,-866.56"/>
<polygon fill="#757575" stroke="#757575" points="610.23,-867.22 616.05,-876.07 617.02,-865.52 610.23,-867.22"/>
</g>
<!-- components/ui/context&#45;menu.tsx -->
<g id="node23" class="node">
<title>components/ui/context&#45;menu.tsx</title>
<path fill="none" stroke="#c6c5fe" d="M457.96,-569.75C457.96,-569.75 262.04,-569.75 262.04,-569.75 258.08,-569.75 254.12,-565.79 254.12,-561.83 254.12,-561.83 254.12,-553.92 254.12,-553.92 254.12,-549.96 258.08,-546 262.04,-546 262.04,-546 457.96,-546 457.96,-546 461.92,-546 465.88,-549.96 465.88,-553.92 465.88,-553.92 465.88,-561.83 465.88,-561.83 465.88,-565.79 461.92,-569.75 457.96,-569.75"/>
<text text-anchor="middle" x="360" y="-552.45" font-family="Arial" font-size="14.00" fill="#c6c5fe">components/ui/context&#45;menu.tsx</text>
</g>
<!-- components/ui/context&#45;menu.tsx&#45;&gt;lib/cn.ts -->
<g id="edge22" class="edge">
<title>components/ui/context&#45;menu.tsx&#45;&gt;lib/cn.ts</title>
<path fill="none" stroke="#757575" d="M466.22,-568.61C475.71,-572.47 484.67,-577.46 492.5,-583.88 583.21,-658.26 609.76,-808.44 616.8,-866.36"/>
<polygon fill="#757575" stroke="#757575" points="613.3,-866.5 617.89,-876.05 620.25,-865.72 613.3,-866.5"/>
</g>
<!-- components/ui/drawer.tsx -->
<g id="node24" class="node">
<title>components/ui/drawer.tsx</title>
<path fill="none" stroke="#c6c5fe" d="M436.96,-527.75C436.96,-527.75 283.04,-527.75 283.04,-527.75 279.08,-527.75 275.12,-523.79 275.12,-519.83 275.12,-519.83 275.12,-511.92 275.12,-511.92 275.12,-507.96 279.08,-504 283.04,-504 283.04,-504 436.96,-504 436.96,-504 440.92,-504 444.88,-507.96 444.88,-511.92 444.88,-511.92 444.88,-519.83 444.88,-519.83 444.88,-523.79 440.92,-527.75 436.96,-527.75"/>
<text text-anchor="middle" x="360" y="-510.45" font-family="Arial" font-size="14.00" fill="#c6c5fe">components/ui/drawer.tsx</text>
</g>
<!-- components/ui/drawer.tsx&#45;&gt;lib/cn.ts -->
<g id="edge24" class="edge">
<title>components/ui/drawer.tsx&#45;&gt;lib/cn.ts</title>
<path fill="none" stroke="#757575" d="M445.24,-515.92C462.34,-519.42 479.15,-525.81 492.5,-536.88 596.8,-623.38 615.21,-802.54 618.44,-866.53"/>
<polygon fill="#757575" stroke="#757575" points="614.93,-866.37 618.84,-876.22 621.92,-866.08 614.93,-866.37"/>
</g>
<!-- components/ui/dropdown&#45;menu.tsx -->
<g id="node25" class="node">
<title>components/ui/dropdown&#45;menu.tsx</title>
<path fill="none" stroke="#c6c5fe" d="M465.83,-485.75C465.83,-485.75 254.17,-485.75 254.17,-485.75 250.21,-485.75 246.25,-481.79 246.25,-477.83 246.25,-477.83 246.25,-469.92 246.25,-469.92 246.25,-465.96 250.21,-462 254.17,-462 254.17,-462 465.83,-462 465.83,-462 469.79,-462 473.75,-465.96 473.75,-469.92 473.75,-469.92 473.75,-477.83 473.75,-477.83 473.75,-481.79 469.79,-485.75 465.83,-485.75"/>
<text text-anchor="middle" x="360" y="-468.45" font-family="Arial" font-size="14.00" fill="#c6c5fe">components/ui/dropdown&#45;menu.tsx</text>
</g>
<!-- components/ui/dropdown&#45;menu.tsx&#45;&gt;lib/cn.ts -->
<g id="edge25" class="edge">
<title>components/ui/dropdown&#45;menu.tsx&#45;&gt;lib/cn.ts</title>
<path fill="none" stroke="#757575" d="M473.96,-482.9C480.62,-486.11 486.89,-490.06 492.5,-494.88 607.72,-593.8 619.04,-797.77 619.45,-866.6"/>
<polygon fill="#757575" stroke="#757575" points="615.95,-866.31 619.42,-876.31 622.95,-866.32 615.95,-866.31"/>
</g>
<!-- components/ui/hover&#45;card.tsx -->
<g id="node26" class="node">
<title>components/ui/hover&#45;card.tsx</title>
<path fill="none" stroke="#c6c5fe" d="M448.96,-443.75C448.96,-443.75 271.04,-443.75 271.04,-443.75 267.08,-443.75 263.12,-439.79 263.12,-435.83 263.12,-435.83 263.12,-427.92 263.12,-427.92 263.12,-423.96 267.08,-420 271.04,-420 271.04,-420 448.96,-420 448.96,-420 452.92,-420 456.88,-423.96 456.88,-427.92 456.88,-427.92 456.88,-435.83 456.88,-435.83 456.88,-439.79 452.92,-443.75 448.96,-443.75"/>
<text text-anchor="middle" x="360" y="-426.45" font-family="Arial" font-size="14.00" fill="#c6c5fe">components/ui/hover&#45;card.tsx</text>
</g>
<!-- components/ui/hover&#45;card.tsx&#45;&gt;lib/cn.ts -->
<g id="edge26" class="edge">
<title>components/ui/hover&#45;card.tsx&#45;&gt;lib/cn.ts</title>
<path fill="none" stroke="#757575" d="M457.27,-434.2C470.2,-438.06 482.45,-444 492.5,-452.88 556.77,-509.65 603.1,-784.46 615.7,-866.63"/>
<polygon fill="#757575" stroke="#757575" points="612.22,-867.04 617.17,-876.4 619.14,-865.99 612.22,-867.04"/>
</g>
<!-- components/ui/input&#45;otp.tsx -->
<g id="node27" class="node">
<title>components/ui/input&#45;otp.tsx</title>
<path fill="none" stroke="#c6c5fe" d="M442.96,-401.75C442.96,-401.75 277.04,-401.75 277.04,-401.75 273.08,-401.75 269.12,-397.79 269.12,-393.83 269.12,-393.83 269.12,-385.92 269.12,-385.92 269.12,-381.96 273.08,-378 277.04,-378 277.04,-378 442.96,-378 442.96,-378 446.92,-378 450.88,-381.96 450.88,-385.92 450.88,-385.92 450.88,-393.83 450.88,-393.83 450.88,-397.79 446.92,-401.75 442.96,-401.75"/>
<text text-anchor="middle" x="360" y="-384.45" font-family="Arial" font-size="14.00" fill="#c6c5fe">components/ui/input&#45;otp.tsx</text>
</g>
<!-- components/ui/input&#45;otp.tsx&#45;&gt;lib/cn.ts -->
<g id="edge27" class="edge">
<title>components/ui/input&#45;otp.tsx&#45;&gt;lib/cn.ts</title>
<path fill="none" stroke="#757575" d="M451.07,-390.24C466.31,-394 480.93,-400.41 492.5,-410.88 562.27,-473.99 605.26,-778.97 616.29,-866.4"/>
<polygon fill="#757575" stroke="#757575" points="612.8,-866.67 617.5,-876.17 619.75,-865.81 612.8,-866.67"/>
</g>
<!-- components/ui/input.tsx -->
<g id="node28" class="node">
<title>components/ui/input.tsx</title>
<path fill="none" stroke="#c6c5fe" d="M431.33,-985.75C431.33,-985.75 288.67,-985.75 288.67,-985.75 284.71,-985.75 280.75,-981.79 280.75,-977.83 280.75,-977.83 280.75,-969.92 280.75,-969.92 280.75,-965.96 284.71,-962 288.67,-962 288.67,-962 431.33,-962 431.33,-962 435.29,-962 439.25,-965.96 439.25,-969.92 439.25,-969.92 439.25,-977.83 439.25,-977.83 439.25,-981.79 435.29,-985.75 431.33,-985.75"/>
<text text-anchor="middle" x="360" y="-968.45" font-family="Arial" font-size="14.00" fill="#c6c5fe">components/ui/input.tsx</text>
</g>
<!-- components/ui/input.tsx&#45;&gt;lib/cn.ts -->
<g id="edge28" class="edge">
<title>components/ui/input.tsx&#45;&gt;lib/cn.ts</title>
<path fill="none" stroke="#757575" d="M439.45,-965.34C457.14,-962.32 475.66,-958.27 492.5,-952.88 527.28,-941.73 564.4,-922.27 589.39,-907.92"/>
<polygon fill="#757575" stroke="#757575" points="591.14,-910.95 598.01,-902.88 587.61,-904.9 591.14,-910.95"/>
</g>
<!-- components/ui/label.tsx -->
<g id="node29" class="node">
<title>components/ui/label.tsx</title>
<path fill="none" stroke="#c6c5fe" d="M430.96,-359.75C430.96,-359.75 289.04,-359.75 289.04,-359.75 285.08,-359.75 281.12,-355.79 281.12,-351.83 281.12,-351.83 281.12,-343.92 281.12,-343.92 281.12,-339.96 285.08,-336 289.04,-336 289.04,-336 430.96,-336 430.96,-336 434.92,-336 438.88,-339.96 438.88,-343.92 438.88,-343.92 438.88,-351.83 438.88,-351.83 438.88,-355.79 434.92,-359.75 430.96,-359.75"/>
<text text-anchor="middle" x="360" y="-342.45" font-family="Arial" font-size="14.00" fill="#c6c5fe">components/ui/label.tsx</text>
</g>
<!-- components/ui/label.tsx&#45;&gt;lib/cn.ts -->
<g id="edge29" class="edge">
<title>components/ui/label.tsx&#45;&gt;lib/cn.ts</title>
<path fill="none" stroke="#757575" d="M439.31,-345.63C458.71,-348.75 478.06,-355.55 492.5,-368.88 567.79,-438.37 607.23,-773.62 616.8,-866.17"/>
<polygon fill="#757575" stroke="#757575" points="613.31,-866.46 617.8,-876.06 620.28,-865.76 613.31,-866.46"/>
</g>
<!-- components/ui/pagination.tsx -->
<g id="node30" class="node">
<title>components/ui/pagination.tsx</title>
<path fill="none" stroke="#c6c5fe" d="M183.58,-1240.75C183.58,-1240.75 7.92,-1240.75 7.92,-1240.75 3.96,-1240.75 0,-1236.79 0,-1232.83 0,-1232.83 0,-1224.92 0,-1224.92 0,-1220.96 3.96,-1217 7.92,-1217 7.92,-1217 183.58,-1217 183.58,-1217 187.54,-1217 191.5,-1220.96 191.5,-1224.92 191.5,-1224.92 191.5,-1232.83 191.5,-1232.83 191.5,-1236.79 187.54,-1240.75 183.58,-1240.75"/>
<text text-anchor="middle" x="95.75" y="-1223.45" font-family="Arial" font-size="14.00" fill="#c6c5fe">components/ui/pagination.tsx</text>
</g>
<!-- components/ui/pagination.tsx&#45;&gt;components/ui/button.tsx -->
<g id="edge30" class="edge">
<title>components/ui/pagination.tsx&#45;&gt;components/ui/button.tsx</title>
<path fill="none" stroke="#757575" d="M191.8,-1240.11C215.72,-1242.94 241.37,-1245.97 265.22,-1248.79"/>
<polygon fill="#757575" stroke="#757575" points="264.56,-1252.24 274.9,-1249.93 265.38,-1245.28 264.56,-1252.24"/>
</g>
<!-- components/ui/pagination.tsx&#45;&gt;lib/cn.ts -->
<g id="edge31" class="edge">
<title>components/ui/pagination.tsx&#45;&gt;lib/cn.ts</title>
<path fill="none" stroke="#757575" d="M191.94,-1233.37C293.56,-1236.25 446.22,-1234.43 492.5,-1200.88 589.43,-1130.59 612.33,-972.89 617.6,-913.29"/>
<polygon fill="#757575" stroke="#757575" points="621.06,-913.88 618.36,-903.64 614.09,-913.33 621.06,-913.88"/>
</g>
<!-- components/ui/popover.tsx -->
<g id="node31" class="node">
<title>components/ui/popover.tsx</title>
<path fill="none" stroke="#c6c5fe" d="M440.71,-317.75C440.71,-317.75 279.29,-317.75 279.29,-317.75 275.33,-317.75 271.38,-313.79 271.38,-309.83 271.38,-309.83 271.38,-301.92 271.38,-301.92 271.38,-297.96 275.33,-294 279.29,-294 279.29,-294 440.71,-294 440.71,-294 444.67,-294 448.62,-297.96 448.62,-301.92 448.62,-301.92 448.62,-309.83 448.62,-309.83 448.62,-313.79 444.67,-317.75 440.71,-317.75"/>
<text text-anchor="middle" x="360" y="-300.45" font-family="Arial" font-size="14.00" fill="#c6c5fe">components/ui/popover.tsx</text>
</g>
<!-- components/ui/popover.tsx&#45;&gt;lib/cn.ts -->
<g id="edge32" class="edge">
<title>components/ui/popover.tsx&#45;&gt;lib/cn.ts</title>
<path fill="none" stroke="#757575" d="M449.02,-305.32C465.09,-309.02 480.53,-315.64 492.5,-326.88 573.4,-402.85 609.11,-769 617.26,-866.16"/>
<polygon fill="#757575" stroke="#757575" points="613.76,-866.38 618.07,-876.06 620.74,-865.81 613.76,-866.38"/>
</g>
<!-- components/ui/progress.tsx -->
<g id="node32" class="node">
<title>components/ui/progress.tsx</title>
<path fill="none" stroke="#c6c5fe" d="M442.96,-275.75C442.96,-275.75 277.04,-275.75 277.04,-275.75 273.08,-275.75 269.12,-271.79 269.12,-267.83 269.12,-267.83 269.12,-259.92 269.12,-259.92 269.12,-255.96 273.08,-252 277.04,-252 277.04,-252 442.96,-252 442.96,-252 446.92,-252 450.88,-255.96 450.88,-259.92 450.88,-259.92 450.88,-267.83 450.88,-267.83 450.88,-271.79 446.92,-275.75 442.96,-275.75"/>
<text text-anchor="middle" x="360" y="-258.45" font-family="Arial" font-size="14.00" fill="#c6c5fe">components/ui/progress.tsx</text>
</g>
<!-- components/ui/progress.tsx&#45;&gt;lib/cn.ts -->
<g id="edge33" class="edge">
<title>components/ui/progress.tsx&#45;&gt;lib/cn.ts</title>
<path fill="none" stroke="#757575" d="M451.18,-263.67C466.51,-267.46 481.12,-274.03 492.5,-284.88 579.1,-367.41 610.9,-765.11 617.67,-866.37"/>
<polygon fill="#757575" stroke="#757575" points="614.17,-866.43 618.3,-876.18 621.15,-865.98 614.17,-866.43"/>
</g>
<!-- components/ui/radio&#45;group.tsx -->
<g id="node33" class="node">
<title>components/ui/radio&#45;group.tsx</title>
<path fill="none" stroke="#c6c5fe" d="M451.21,-233.75C451.21,-233.75 268.79,-233.75 268.79,-233.75 264.83,-233.75 260.88,-229.79 260.88,-225.83 260.88,-225.83 260.88,-217.92 260.88,-217.92 260.88,-213.96 264.83,-210 268.79,-210 268.79,-210 451.21,-210 451.21,-210 455.17,-210 459.12,-213.96 459.12,-217.92 459.12,-217.92 459.12,-225.83 459.12,-225.83 459.12,-229.79 455.17,-233.75 451.21,-233.75"/>
<text text-anchor="middle" x="360" y="-216.45" font-family="Arial" font-size="14.00" fill="#c6c5fe">components/ui/radio&#45;group.tsx</text>
</g>
<!-- components/ui/radio&#45;group.tsx&#45;&gt;lib/cn.ts -->
<g id="edge34" class="edge">
<title>components/ui/radio&#45;group.tsx&#45;&gt;lib/cn.ts</title>
<path fill="none" stroke="#757575" d="M459.32,-223.83C471.66,-227.82 483.19,-233.88 492.5,-242.88 584.77,-331.98 612.54,-761.03 618.02,-866.44"/>
<polygon fill="#757575" stroke="#757575" points="614.51,-866.33 618.5,-876.14 621.5,-865.98 614.51,-866.33"/>
</g>
<!-- components/ui/scroll&#45;area.tsx -->
<g id="node34" class="node">
<title>components/ui/scroll&#45;area.tsx</title>
<path fill="none" stroke="#c6c5fe" d="M448.21,-191.75C448.21,-191.75 271.79,-191.75 271.79,-191.75 267.83,-191.75 263.88,-187.79 263.88,-183.83 263.88,-183.83 263.88,-175.92 263.88,-175.92 263.88,-171.96 267.83,-168 271.79,-168 271.79,-168 448.21,-168 448.21,-168 452.17,-168 456.12,-171.96 456.12,-175.92 456.12,-175.92 456.12,-183.83 456.12,-183.83 456.12,-187.79 452.17,-191.75 448.21,-191.75"/>
<text text-anchor="middle" x="360" y="-174.45" font-family="Arial" font-size="14.00" fill="#c6c5fe">components/ui/scroll&#45;area.tsx</text>
</g>
<!-- components/ui/scroll&#45;area.tsx&#45;&gt;lib/cn.ts -->
<g id="edge35" class="edge">
<title>components/ui/scroll&#45;area.tsx&#45;&gt;lib/cn.ts</title>
<path fill="none" stroke="#757575" d="M456.43,-180.81C469.87,-184.77 482.49,-191.1 492.5,-200.88 590.41,-296.52 614.04,-756.63 618.31,-866.35"/>
<polygon fill="#757575" stroke="#757575" points="614.81,-866.31 618.68,-876.17 621.81,-866.05 614.81,-866.31"/>
</g>
<!-- components/ui/select.tsx -->
<g id="node35" class="node">
<title>components/ui/select.tsx</title>
<path fill="none" stroke="#c6c5fe" d="M434.33,-1687.75C434.33,-1687.75 285.67,-1687.75 285.67,-1687.75 281.71,-1687.75 277.75,-1683.79 277.75,-1679.83 277.75,-1679.83 277.75,-1671.92 277.75,-1671.92 277.75,-1667.96 281.71,-1664 285.67,-1664 285.67,-1664 434.33,-1664 434.33,-1664 438.29,-1664 442.25,-1667.96 442.25,-1671.92 442.25,-1671.92 442.25,-1679.83 442.25,-1679.83 442.25,-1683.79 438.29,-1687.75 434.33,-1687.75"/>
<text text-anchor="middle" x="360" y="-1670.45" font-family="Arial" font-size="14.00" fill="#c6c5fe">components/ui/select.tsx</text>
</g>
<!-- components/ui/select.tsx&#45;&gt;lib/cn.ts -->
<g id="edge36" class="edge">
<title>components/ui/select.tsx&#45;&gt;lib/cn.ts</title>
<path fill="none" stroke="#757575" d="M442.72,-1678.36C461.18,-1675.03 479.22,-1668.08 492.5,-1654.88 600.61,-1547.37 616.54,-1031.21 618.78,-913.71"/>
<polygon fill="#757575" stroke="#757575" points="622.27,-913.79 618.95,-903.74 615.28,-913.67 622.27,-913.79"/>
</g>
<!-- components/ui/sheet.tsx -->
<g id="node36" class="node">
<title>components/ui/sheet.tsx</title>
<path fill="none" stroke="#c6c5fe" d="M433.21,-943.75C433.21,-943.75 286.79,-943.75 286.79,-943.75 282.83,-943.75 278.88,-939.79 278.88,-935.83 278.88,-935.83 278.88,-927.92 278.88,-927.92 278.88,-923.96 282.83,-920 286.79,-920 286.79,-920 433.21,-920 433.21,-920 437.17,-920 441.12,-923.96 441.12,-927.92 441.12,-927.92 441.12,-935.83 441.12,-935.83 441.12,-939.79 437.17,-943.75 433.21,-943.75"/>
<text text-anchor="middle" x="360" y="-926.45" font-family="Arial" font-size="14.00" fill="#c6c5fe">components/ui/sheet.tsx</text>
</g>
<!-- components/ui/sheet.tsx&#45;&gt;lib/cn.ts -->
<g id="edge38" class="edge">
<title>components/ui/sheet.tsx&#45;&gt;lib/cn.ts</title>
<path fill="none" stroke="#757575" d="M438.89,-919.52C456.52,-916.7 475.16,-913.7 492.5,-910.88 520.98,-906.24 553.05,-900.92 577.79,-896.8"/>
<polygon fill="#757575" stroke="#757575" points="578.16,-900.28 587.45,-895.18 577.01,-893.38 578.16,-900.28"/>
</g>
<!-- components/ui/sidebar.tsx -->
<g id="node37" class="node">
<title>components/ui/sidebar.tsx</title>
<path fill="none" stroke="#c6c5fe" d="M174.21,-1086.75C174.21,-1086.75 17.29,-1086.75 17.29,-1086.75 13.33,-1086.75 9.38,-1082.79 9.38,-1078.83 9.38,-1078.83 9.38,-1070.92 9.38,-1070.92 9.38,-1066.96 13.33,-1063 17.29,-1063 17.29,-1063 174.21,-1063 174.21,-1063 178.17,-1063 182.12,-1066.96 182.12,-1070.92 182.12,-1070.92 182.12,-1078.83 182.12,-1078.83 182.12,-1082.79 178.17,-1086.75 174.21,-1086.75"/>
<text text-anchor="middle" x="95.75" y="-1069.45" font-family="Arial" font-size="14.00" fill="#c6c5fe">components/ui/sidebar.tsx</text>
</g>
<!-- components/ui/sidebar.tsx&#45;&gt;components/ui/button.tsx -->
<g id="edge39" class="edge">
<title>components/ui/sidebar.tsx&#45;&gt;components/ui/button.tsx</title>
<path fill="none" stroke="#757575" d="M106.81,-1087.06C127.36,-1111.36 176.57,-1166.45 227.5,-1200.88 253.83,-1218.67 286.4,-1233.33 312.54,-1243.58"/>
<polygon fill="#757575" stroke="#757575" points="310.94,-1246.72 321.53,-1247.03 313.44,-1240.18 310.94,-1246.72"/>
</g>
<!-- components/ui/sidebar.tsx&#45;&gt;components/ui/separator.tsx -->
<g id="edge41" class="edge">
<title>components/ui/sidebar.tsx&#45;&gt;components/ui/separator.tsx</title>
<path fill="none" stroke="#757575" d="M111.33,-1087.17C134.38,-1105.91 181.37,-1141.26 227.5,-1158.88 236.52,-1162.32 246.1,-1165.2 255.82,-1167.61"/>
<polygon fill="#757575" stroke="#757575" points="254.82,-1170.97 265.35,-1169.79 256.38,-1164.15 254.82,-1170.97"/>
</g>
<!-- components/ui/sidebar.tsx&#45;&gt;lib/cn.ts -->
<g id="edge46" class="edge">
<title>components/ui/sidebar.tsx&#45;&gt;lib/cn.ts</title>
<path fill="none" stroke="#757575" d="M129.91,-1062.51C156.08,-1053.17 193.7,-1040.67 227.5,-1032.88 343.44,-1006.14 383.73,-1043.1 492.5,-994.88 537.14,-975.08 578.64,-934.88 601.28,-910.37"/>
<polygon fill="#757575" stroke="#757575" points="603.62,-913 607.72,-903.24 598.42,-908.31 603.62,-913"/>
</g>
<!-- components/ui/sidebar.tsx&#45;&gt;components/ui/input.tsx -->
<g id="edge40" class="edge">
<title>components/ui/sidebar.tsx&#45;&gt;components/ui/input.tsx</title>
<path fill="none" stroke="#757575" d="M113.62,-1062.78C137.7,-1046.08 183.87,-1016.2 227.5,-999.88 240.79,-994.9 255.2,-990.83 269.46,-987.5"/>
<polygon fill="#757575" stroke="#757575" points="269.82,-991 278.83,-985.42 268.31,-984.17 269.82,-991"/>
</g>
<!-- components/ui/sidebar.tsx&#45;&gt;components/ui/sheet.tsx -->
<g id="edge42" class="edge">
<title>components/ui/sidebar.tsx&#45;&gt;components/ui/sheet.tsx</title>
<path fill="none" stroke="#757575" d="M105.63,-1062.7C124.74,-1037.5 172.55,-979.73 227.5,-952.88 239.87,-946.83 253.61,-942.46 267.41,-939.31"/>
<polygon fill="#757575" stroke="#757575" points="267.88,-942.79 276.97,-937.35 266.47,-935.93 267.88,-942.79"/>
</g>
<!-- components/ui/skeleton.tsx -->
<g id="node38" class="node">
<title>components/ui/skeleton.tsx</title>
<path fill="none" stroke="#c6c5fe" d="M441.83,-1107.75C441.83,-1107.75 278.17,-1107.75 278.17,-1107.75 274.21,-1107.75 270.25,-1103.79 270.25,-1099.83 270.25,-1099.83 270.25,-1091.92 270.25,-1091.92 270.25,-1087.96 274.21,-1084 278.17,-1084 278.17,-1084 441.83,-1084 441.83,-1084 445.79,-1084 449.75,-1087.96 449.75,-1091.92 449.75,-1091.92 449.75,-1099.83 449.75,-1099.83 449.75,-1103.79 445.79,-1107.75 441.83,-1107.75"/>
<text text-anchor="middle" x="360" y="-1090.45" font-family="Arial" font-size="14.00" fill="#c6c5fe">components/ui/skeleton.tsx</text>
</g>
<!-- components/ui/sidebar.tsx&#45;&gt;components/ui/skeleton.tsx -->
<g id="edge43" class="edge">
<title>components/ui/sidebar.tsx&#45;&gt;components/ui/skeleton.tsx</title>
<path fill="none" stroke="#757575" d="M182.62,-1081.75C206.84,-1083.69 233.42,-1085.82 258.42,-1087.82"/>
<polygon fill="#757575" stroke="#757575" points="258.03,-1091.3 268.28,-1088.61 258.59,-1084.32 258.03,-1091.3"/>
</g>
<!-- components/ui/tooltip.tsx -->
<g id="node39" class="node">
<title>components/ui/tooltip.tsx</title>
<path fill="none" stroke="#c6c5fe" d="M434.71,-1065.75C434.71,-1065.75 285.29,-1065.75 285.29,-1065.75 281.33,-1065.75 277.38,-1061.79 277.38,-1057.83 277.38,-1057.83 277.38,-1049.92 277.38,-1049.92 277.38,-1045.96 281.33,-1042 285.29,-1042 285.29,-1042 434.71,-1042 434.71,-1042 438.67,-1042 442.62,-1045.96 442.62,-1049.92 442.62,-1049.92 442.62,-1057.83 442.62,-1057.83 442.62,-1061.79 438.67,-1065.75 434.71,-1065.75"/>
<text text-anchor="middle" x="360" y="-1048.45" font-family="Arial" font-size="14.00" fill="#c6c5fe">components/ui/tooltip.tsx</text>
</g>
<!-- components/ui/sidebar.tsx&#45;&gt;components/ui/tooltip.tsx -->
<g id="edge44" class="edge">
<title>components/ui/sidebar.tsx&#45;&gt;components/ui/tooltip.tsx</title>
<path fill="none" stroke="#757575" d="M182.62,-1068C209.15,-1065.87 238.51,-1063.52 265.53,-1061.36"/>
<polygon fill="#757575" stroke="#757575" points="265.75,-1064.85 275.44,-1060.57 265.19,-1057.88 265.75,-1064.85"/>
</g>
<!-- hooks/use&#45;mobile.ts -->
<g id="node40" class="node">
<title>hooks/use&#45;mobile.ts</title>
<path fill="none" stroke="#cfffac" d="M420.46,-1149.75C420.46,-1149.75 299.54,-1149.75 299.54,-1149.75 295.58,-1149.75 291.62,-1145.79 291.62,-1141.83 291.62,-1141.83 291.62,-1133.92 291.62,-1133.92 291.62,-1129.96 295.58,-1126 299.54,-1126 299.54,-1126 420.46,-1126 420.46,-1126 424.42,-1126 428.38,-1129.96 428.38,-1133.92 428.38,-1133.92 428.38,-1141.83 428.38,-1141.83 428.38,-1145.79 424.42,-1149.75 420.46,-1149.75"/>
<text text-anchor="middle" x="360" y="-1132.45" font-family="Arial" font-size="14.00" fill="#cfffac">hooks/use&#45;mobile.ts</text>
</g>
<!-- components/ui/sidebar.tsx&#45;&gt;hooks/use&#45;mobile.ts -->
<g id="edge45" class="edge">
<title>components/ui/sidebar.tsx&#45;&gt;hooks/use&#45;mobile.ts</title>
<path fill="none" stroke="#757575" d="M130.21,-1087.18C156.39,-1096.43 193.88,-1108.84 227.5,-1116.88 244.38,-1120.91 262.66,-1124.38 280.08,-1127.28"/>
<polygon fill="#757575" stroke="#757575" points="279.45,-1130.72 289.88,-1128.86 280.56,-1123.81 279.45,-1130.72"/>
</g>
<!-- components/ui/skeleton.tsx&#45;&gt;lib/cn.ts -->
<g id="edge47" class="edge">
<title>components/ui/skeleton.tsx&#45;&gt;lib/cn.ts</title>
<path fill="none" stroke="#757575" d="M450.17,-1091.67C465.08,-1088.22 479.8,-1082.91 492.5,-1074.88 555.05,-1035.27 594.56,-952.38 610.73,-912.39"/>
<polygon fill="#757575" stroke="#757575" points="613.9,-913.89 614.29,-903.3 607.38,-911.34 613.9,-913.89"/>
</g>
<!-- components/ui/tooltip.tsx&#45;&gt;lib/cn.ts -->
<g id="edge53" class="edge">
<title>components/ui/tooltip.tsx&#45;&gt;lib/cn.ts</title>
<path fill="none" stroke="#757575" d="M443.12,-1045.92C460.16,-1042.04 477.49,-1036.31 492.5,-1027.88 543.44,-999.26 585.25,-942.83 605.66,-911.72"/>
<polygon fill="#757575" stroke="#757575" points="608.48,-913.81 610.92,-903.5 602.58,-910.04 608.48,-913.81"/>
</g>
<!-- components/ui/slider.tsx -->
<g id="node41" class="node">
<title>components/ui/slider.tsx</title>
<path fill="none" stroke="#c6c5fe" d="M432.46,-1645.75C432.46,-1645.75 287.54,-1645.75 287.54,-1645.75 283.58,-1645.75 279.62,-1641.79 279.62,-1637.83 279.62,-1637.83 279.62,-1629.92 279.62,-1629.92 279.62,-1625.96 283.58,-1622 287.54,-1622 287.54,-1622 432.46,-1622 432.46,-1622 436.42,-1622 440.38,-1625.96 440.38,-1629.92 440.38,-1629.92 440.38,-1637.83 440.38,-1637.83 440.38,-1641.79 436.42,-1645.75 432.46,-1645.75"/>
<text text-anchor="middle" x="360" y="-1628.45" font-family="Arial" font-size="14.00" fill="#c6c5fe">components/ui/slider.tsx</text>
</g>
<!-- components/ui/slider.tsx&#45;&gt;lib/cn.ts -->
<g id="edge48" class="edge">
<title>components/ui/slider.tsx&#45;&gt;lib/cn.ts</title>
<path fill="none" stroke="#757575" d="M440.58,-1636.63C459.75,-1633.45 478.67,-1626.5 492.5,-1612.88 594.99,-1511.91 615.19,-1026.58 618.53,-913.47"/>
<polygon fill="#757575" stroke="#757575" points="622.03,-913.7 618.81,-903.61 615.03,-913.51 622.03,-913.7"/>
</g>
<!-- components/ui/sonner.tsx -->
<g id="node42" class="node">
<title>components/ui/sonner.tsx</title>
<path fill="none" stroke="#cfffac" d="M172.71,-1477.75C172.71,-1477.75 18.79,-1477.75 18.79,-1477.75 14.83,-1477.75 10.88,-1473.79 10.88,-1469.83 10.88,-1469.83 10.88,-1461.92 10.88,-1461.92 10.88,-1457.96 14.83,-1454 18.79,-1454 18.79,-1454 172.71,-1454 172.71,-1454 176.67,-1454 180.62,-1457.96 180.62,-1461.92 180.62,-1461.92 180.62,-1469.83 180.62,-1469.83 180.62,-1473.79 176.67,-1477.75 172.71,-1477.75"/>
<text text-anchor="middle" x="95.75" y="-1460.45" font-family="Arial" font-size="14.00" fill="#cfffac">components/ui/sonner.tsx</text>
</g>
<!-- components/ui/switch.tsx -->
<g id="node43" class="node">
<title>components/ui/switch.tsx</title>
<path fill="none" stroke="#c6c5fe" d="M435.46,-1603.75C435.46,-1603.75 284.54,-1603.75 284.54,-1603.75 280.58,-1603.75 276.62,-1599.79 276.62,-1595.83 276.62,-1595.83 276.62,-1587.92 276.62,-1587.92 276.62,-1583.96 280.58,-1580 284.54,-1580 284.54,-1580 435.46,-1580 435.46,-1580 439.42,-1580 443.38,-1583.96 443.38,-1587.92 443.38,-1587.92 443.38,-1595.83 443.38,-1595.83 443.38,-1599.79 439.42,-1603.75 435.46,-1603.75"/>
<text text-anchor="middle" x="360" y="-1586.45" font-family="Arial" font-size="14.00" fill="#c6c5fe">components/ui/switch.tsx</text>
</g>
<!-- components/ui/switch.tsx&#45;&gt;lib/cn.ts -->
<g id="edge49" class="edge">
<title>components/ui/switch.tsx&#45;&gt;lib/cn.ts</title>
<path fill="none" stroke="#757575" d="M443.56,-1593.99C461.67,-1590.59 479.34,-1583.7 492.5,-1570.88 589.31,-1476.5 613.74,-1022.56 618.26,-913.48"/>
<polygon fill="#757575" stroke="#757575" points="621.75,-913.83 618.64,-903.7 614.75,-913.56 621.75,-913.83"/>
</g>
<!-- components/ui/table.tsx -->
<g id="node44" class="node">
<title>components/ui/table.tsx</title>
<path fill="none" stroke="#c6c5fe" d="M431.33,-1561.75C431.33,-1561.75 288.67,-1561.75 288.67,-1561.75 284.71,-1561.75 280.75,-1557.79 280.75,-1553.83 280.75,-1553.83 280.75,-1545.92 280.75,-1545.92 280.75,-1541.96 284.71,-1538 288.67,-1538 288.67,-1538 431.33,-1538 431.33,-1538 435.29,-1538 439.25,-1541.96 439.25,-1545.92 439.25,-1545.92 439.25,-1553.83 439.25,-1553.83 439.25,-1557.79 435.29,-1561.75 431.33,-1561.75"/>
<text text-anchor="middle" x="360" y="-1544.45" font-family="Arial" font-size="14.00" fill="#c6c5fe">components/ui/table.tsx</text>
</g>
<!-- components/ui/table.tsx&#45;&gt;lib/cn.ts -->
<g id="edge50" class="edge">
<title>components/ui/table.tsx&#45;&gt;lib/cn.ts</title>
<path fill="none" stroke="#757575" d="M439.69,-1552.53C459.1,-1549.4 478.35,-1542.51 492.5,-1528.88 583.59,-1441.12 612.17,-1018.91 617.93,-913.68"/>
<polygon fill="#757575" stroke="#757575" points="621.43,-913.89 618.46,-903.72 614.44,-913.52 621.43,-913.89"/>
</g>
<!-- components/ui/tabs.tsx -->
<g id="node45" class="node">
<title>components/ui/tabs.tsx</title>
<path fill="none" stroke="#c6c5fe" d="M429.46,-1393.75C429.46,-1393.75 290.54,-1393.75 290.54,-1393.75 286.58,-1393.75 282.62,-1389.79 282.62,-1385.83 282.62,-1385.83 282.62,-1377.92 282.62,-1377.92 282.62,-1373.96 286.58,-1370 290.54,-1370 290.54,-1370 429.46,-1370 429.46,-1370 433.42,-1370 437.38,-1373.96 437.38,-1377.92 437.38,-1377.92 437.38,-1385.83 437.38,-1385.83 437.38,-1389.79 433.42,-1393.75 429.46,-1393.75"/>
<text text-anchor="middle" x="360" y="-1376.45" font-family="Arial" font-size="14.00" fill="#c6c5fe">components/ui/tabs.tsx</text>
</g>
<!-- components/ui/tabs.tsx&#45;&gt;lib/cn.ts -->
<g id="edge51" class="edge">
<title>components/ui/tabs.tsx&#45;&gt;lib/cn.ts</title>
<path fill="none" stroke="#757575" d="M437.72,-1384.1C457.58,-1381.07 477.56,-1374.34 492.5,-1360.88 561.24,-1298.96 604.89,-999.57 616.2,-913.23"/>
<polygon fill="#757575" stroke="#757575" points="619.66,-913.75 617.46,-903.38 612.72,-912.85 619.66,-913.75"/>
</g>
<!-- components/ui/textarea.tsx -->
<g id="node46" class="node">
<title>components/ui/textarea.tsx</title>
<path fill="none" stroke="#c6c5fe" d="M441.08,-1351.75C441.08,-1351.75 278.92,-1351.75 278.92,-1351.75 274.96,-1351.75 271,-1347.79 271,-1343.83 271,-1343.83 271,-1335.92 271,-1335.92 271,-1331.96 274.96,-1328 278.92,-1328 278.92,-1328 441.08,-1328 441.08,-1328 445.04,-1328 449,-1331.96 449,-1335.92 449,-1335.92 449,-1343.83 449,-1343.83 449,-1347.79 445.04,-1351.75 441.08,-1351.75"/>
<text text-anchor="middle" x="360" y="-1334.45" font-family="Arial" font-size="14.00" fill="#c6c5fe">components/ui/textarea.tsx</text>
</g>
<!-- components/ui/textarea.tsx&#45;&gt;lib/cn.ts -->
<g id="edge52" class="edge">
<title>components/ui/textarea.tsx&#45;&gt;lib/cn.ts</title>
<path fill="none" stroke="#757575" d="M449.29,-1336C465.15,-1331.74 480.45,-1324.83 492.5,-1313.88 613.15,-1204.18 620.78,-984.91 619.86,-913.18"/>
<polygon fill="#757575" stroke="#757575" points="623.37,-913.34 619.66,-903.42 616.37,-913.49 623.37,-913.34"/>
</g>
<!-- generated/prisma/runtime/library.d.ts -->
<g id="node49" class="node">
<title>generated/prisma/runtime/library.d.ts</title>
<path fill="none" stroke="#cfffac" d="M976.33,-23.75C976.33,-23.75 755.67,-23.75 755.67,-23.75 751.71,-23.75 747.75,-19.79 747.75,-15.83 747.75,-15.83 747.75,-7.92 747.75,-7.92 747.75,-3.96 751.71,0 755.67,0 755.67,0 976.33,0 976.33,0 980.29,0 984.25,-3.96 984.25,-7.92 984.25,-7.92 984.25,-15.83 984.25,-15.83 984.25,-19.79 980.29,-23.75 976.33,-23.75"/>
<text text-anchor="middle" x="866" y="-6.45" font-family="Arial" font-size="14.00" fill="#cfffac">generated/prisma/runtime/library.d.ts</text>
</g>
<!-- generated/prisma/index.d.ts&#45;&gt;generated/prisma/runtime/library.d.ts -->
<g id="edge54" class="edge">
<title>generated/prisma/index.d.ts&#45;&gt;generated/prisma/runtime/library.d.ts</title>
<path fill="none" stroke="#757575" d="M711.94,-11.88C719.94,-11.88 728.14,-11.88 736.38,-11.88"/>
<polygon fill="#757575" stroke="#757575" points="736.11,-15.38 746.11,-11.88 736.11,-8.38 736.11,-15.38"/>
</g>
<!-- lib/auth&#45;client.ts -->
<g id="node50" class="node">
<title>lib/auth&#45;client.ts</title>
<path fill="none" stroke="#c6c5fe" d="M406.96,-65.75C406.96,-65.75 313.04,-65.75 313.04,-65.75 309.08,-65.75 305.12,-61.79 305.12,-57.83 305.12,-57.83 305.12,-49.92 305.12,-49.92 305.12,-45.96 309.08,-42 313.04,-42 313.04,-42 406.96,-42 406.96,-42 410.92,-42 414.88,-45.96 414.88,-49.92 414.88,-49.92 414.88,-57.83 414.88,-57.83 414.88,-61.79 410.92,-65.75 406.96,-65.75"/>
<text text-anchor="middle" x="360" y="-48.45" font-family="Arial" font-size="14.00" fill="#c6c5fe">lib/auth&#45;client.ts</text>
</g>
<!-- lib/auth&#45;client.ts&#45;&gt;env.mjs -->
<g id="edge55" class="edge">
<title>lib/auth&#45;client.ts&#45;&gt;env.mjs</title>
<path fill="none" stroke="#757575" d="M415.11,-53.88C463.32,-53.88 532.88,-53.88 577.04,-53.88"/>
<polygon fill="#757575" stroke="#757575" points="576.99,-57.38 586.99,-53.88 576.99,-50.38 576.99,-57.38"/>
</g>
</g>
</svg>
